<svg id="svg" version="1.1" xmlns="http://www.w3.org/2000/svg" width="400"
     height="387.8787878787879" viewBox="0, 0, 400,387.8787878787879">
    <g id="svgg">
        <path id="path0"
              d="M195.191 1.197 C 194.680 1.401,194.359 1.666,194.479 1.786 C 194.598 1.905,195.028 1.825,195.433 1.608 C 196.005 1.302,196.398 1.403,197.193 2.062 L 198.215 2.910 103.666 97.681 C 51.664 149.806,8.854 192.449,8.532 192.444 C 8.210 192.439,7.724 192.079,7.452 191.644 C 6.691 190.425,6.087 191.138,6.372 192.920 C 6.908 196.271,7.858 197.428,20.152 209.697 C 26.779 216.311,32.202 221.947,32.202 222.221 C 32.202 222.496,27.743 227.190,22.294 232.653 C 16.845 238.115,12.452 242.649,12.530 242.727 C 12.609 242.806,17.371 238.157,23.113 232.395 C 28.855 226.634,33.693 221.920,33.864 221.920 C 34.034 221.920,34.548 221.572,35.006 221.145 C 35.958 220.259,37.118 220.710,37.661 222.178 C 38.162 223.532,5.076 256.331,3.931 255.616 C 3.476 255.332,3.104 254.782,3.104 254.394 C 3.104 254.006,2.929 253.796,2.716 253.928 C 2.012 254.363,2.280 257.891,3.135 259.445 C 3.579 260.252,30.718 287.711,63.444 320.466 C 96.170 353.220,123.329 380.515,123.797 381.120 C 124.265 381.725,126.129 383.514,127.938 385.096 L 131.228 387.973 134.623 387.973 L 138.018 387.973 152.938 373.036 C 161.144 364.821,168.013 358.099,168.202 358.099 C 168.392 358.099,174.227 363.731,181.170 370.614 C 195.350 384.674,194.622 384.093,198.060 384.093 C 201.503 384.093,200.774 384.676,215.024 370.531 L 227.721 357.928 242.790 372.951 L 257.860 387.973 261.401 387.973 L 264.942 387.973 328.680 324.138 C 363.736 289.029,392.559 260.052,392.731 259.745 C 393.467 258.430,393.519 254.306,392.818 252.949 C 392.441 252.221,385.610 245.096,377.638 237.117 C 369.665 229.138,363.143 222.464,363.143 222.286 C 363.143 222.109,368.888 216.206,375.911 209.170 C 390.362 194.689,390.367 194.683,389.093 190.241 C 388.533 188.287,204.870 3.743,201.358 1.605 C 199.895 0.715,196.893 0.516,195.191 1.197 M191.197 4.171 C 190.003 5.398,187.654 7.733,185.978 9.360 C 184.301 10.987,182.056 13.205,180.989 14.288 C 179.922 15.372,177.478 17.855,175.558 19.807 C 173.637 21.758,171.032 24.342,169.769 25.548 C 168.506 26.753,166.498 28.760,165.308 30.007 C 164.117 31.254,152.330 43.082,139.115 56.292 C 125.900 69.502,115.217 80.310,115.374 80.310 C 115.530 80.310,116.687 79.263,117.944 77.983 C 119.200 76.702,120.369 75.646,120.541 75.635 C 120.713 75.624,121.901 74.482,123.181 73.097 C 127.575 68.342,129.928 65.955,130.240 65.936 C 130.412 65.925,131.600 64.777,132.881 63.385 C 134.161 61.994,136.227 59.864,137.471 58.652 C 140.230 55.967,143.776 52.423,146.728 49.400 C 147.943 48.156,150.125 45.980,151.578 44.564 C 153.031 43.148,155.205 40.966,156.411 39.714 C 157.616 38.463,159.798 36.274,161.260 34.849 C 162.722 33.425,164.899 31.242,166.096 30.000 C 167.294 28.757,169.426 26.693,170.834 25.412 C 172.242 24.132,173.401 22.945,173.409 22.775 C 173.424 22.454,177.206 18.718,180.949 15.325 C 182.126 14.258,183.106 13.210,183.127 12.997 C 183.149 12.784,184.477 11.387,186.079 9.893 C 192.296 4.097,194.304 1.940,193.483 1.940 C 193.420 1.940,192.391 2.944,191.197 4.171 M286.406 100.191 C 335.849 149.751,376.266 190.416,376.221 190.556 C 376.077 191.008,196.335 370.902,196.028 370.902 C 195.479 370.901,15.907 191.023,15.907 190.474 C 15.907 189.863,195.502 10.089,196.116 10.085 C 196.332 10.083,236.962 50.631,286.406 100.191 M183.977 67.973 C 183.632 68.318,183.511 72.039,183.511 82.314 C 183.511 98.095,183.767 96.993,180.108 96.993 C 148.131 96.993,119.365 124.975,122.586 152.947 C 124.981 173.736,137.470 188.242,161.591 198.249 C 163.725 199.134,165.820 200.005,166.246 200.185 C 168.356 201.072,172.705 202.674,175.334 203.533 C 176.951 204.062,178.623 204.648,179.049 204.836 C 179.476 205.024,180.655 205.477,181.668 205.842 L 183.511 206.507 183.511 226.435 C 183.511 240.778,183.390 246.363,183.080 246.363 C 182.521 246.363,177.925 243.938,177.756 243.553 C 177.685 243.391,177.412 243.259,177.150 243.259 C 176.888 243.259,176.335 242.953,175.922 242.580 C 175.508 242.207,174.352 241.290,173.353 240.543 C 167.852 236.431,159.077 226.220,155.156 219.368 C 152.319 214.410,150.559 211.109,148.502 206.887 C 145.784 201.308,146.350 201.540,139.599 203.239 C 137.184 203.847,132.764 204.914,129.777 205.609 C 117.574 208.451,118.277 207.872,119.455 214.108 C 121.253 223.628,123.055 233.344,124.178 239.573 C 124.409 240.854,124.765 242.774,124.968 243.841 C 125.172 244.908,125.497 246.654,125.692 247.721 C 126.102 249.978,126.689 253.118,127.214 255.868 C 127.418 256.935,127.785 258.943,128.031 260.330 C 128.277 261.717,128.634 263.637,128.825 264.597 C 129.016 265.558,129.620 268.788,130.167 271.775 C 131.500 279.047,131.441 278.815,132.133 279.507 C 133.093 280.467,147.006 280.406,148.135 279.437 C 148.570 279.064,150.013 276.052,151.342 272.745 C 154.470 264.960,153.973 265.332,157.808 267.899 C 159.557 269.071,161.097 270.029,161.230 270.029 C 161.362 270.029,161.934 270.355,162.501 270.754 C 165.462 272.837,175.326 277.389,179.416 278.558 C 183.997 279.869,183.511 277.706,183.511 296.771 C 183.511 311.576,183.578 313.425,184.125 313.635 C 185.674 314.229,210.599 313.885,211.224 313.260 C 211.757 312.727,211.833 310.743,211.833 297.353 L 211.833 282.056 212.855 282.056 C 214.421 282.056,221.135 280.853,225.800 279.737 C 235.555 277.403,246.450 271.891,254.068 265.437 C 255.485 264.237,256.962 262.989,257.352 262.665 C 261.695 259.047,268.597 248.319,270.711 241.901 C 272.780 235.615,273.248 232.752,273.242 226.396 C 273.227 208.802,263.100 191.472,247.513 182.371 C 242.187 179.260,236.310 176.502,229.680 174.001 C 227.258 173.088,216.769 169.665,214.064 168.905 L 211.833 168.278 211.833 151.452 C 211.833 142.198,211.914 134.627,212.014 134.627 C 212.677 134.627,217.784 138.331,220.563 140.828 C 228.497 147.959,233.375 154.981,238.530 166.696 C 239.608 169.147,240.099 169.357,242.843 168.545 C 244.032 168.193,246.227 167.557,247.721 167.132 C 249.214 166.707,250.873 166.224,251.406 166.057 C 251.940 165.891,253.162 165.539,254.122 165.276 C 255.082 165.014,256.305 164.664,256.838 164.500 C 257.371 164.337,258.594 163.987,259.554 163.725 C 266.376 161.857,266.475 161.735,265.150 156.857 C 264.191 153.326,262.238 145.823,261.888 144.326 C 261.713 143.579,261.020 140.873,260.348 138.312 C 259.675 135.752,258.422 130.951,257.564 127.643 C 256.705 124.336,255.389 119.273,254.638 116.392 C 253.888 113.511,253.132 110.543,252.959 109.796 C 250.464 99.051,251.151 99.709,242.427 99.709 C 233.940 99.709,234.200 99.598,231.793 104.244 C 229.421 108.823,229.871 108.706,225.012 106.004 C 221.230 103.902,216.728 101.931,213.288 100.872 L 211.833 100.425 211.833 84.576 C 211.833 70.685,211.758 68.651,211.224 68.117 C 210.426 67.320,184.766 67.184,183.977 67.973 M206.689 89.816 C 206.741 97.284,206.936 103.744,207.123 104.171 C 208.570 107.482,209.231 108.001,214.078 109.626 C 217.106 110.642,218.298 111.118,220.757 112.293 C 222.094 112.933,222.675 113.264,227.027 115.862 C 232.467 119.110,235.432 117.847,238.761 110.863 L 239.824 108.632 243.397 108.632 L 246.969 108.632 247.468 110.475 C 247.742 111.489,248.129 112.621,248.328 112.992 C 248.528 113.362,248.691 114.181,248.691 114.812 C 248.691 115.442,248.865 116.066,249.079 116.198 C 249.292 116.330,249.467 117.028,249.467 117.750 C 249.467 118.471,249.641 119.170,249.855 119.302 C 250.068 119.434,250.242 120.132,250.242 120.854 C 250.242 121.575,250.399 122.262,250.589 122.380 C 250.780 122.498,251.028 123.250,251.140 124.052 C 251.252 124.853,251.524 126.208,251.745 127.061 C 251.966 127.915,252.329 129.355,252.553 130.262 C 252.776 131.169,253.120 132.565,253.317 133.366 C 253.790 135.283,254.644 138.413,255.673 141.998 C 256.132 143.598,256.661 145.519,256.849 146.266 C 257.037 147.013,257.387 148.409,257.628 149.370 C 257.868 150.330,258.157 151.771,258.269 152.573 C 258.380 153.374,258.628 154.127,258.819 154.245 C 259.010 154.362,259.166 155.049,259.166 155.771 C 259.166 156.493,259.340 157.191,259.554 157.323 C 260.277 157.770,259.963 158.973,259.069 159.182 C 255.828 159.936,253.054 160.714,252.479 161.028 C 252.108 161.231,251.289 161.397,250.659 161.397 C 250.028 161.397,249.404 161.571,249.273 161.785 C 249.141 161.998,248.692 162.173,248.274 162.173 C 247.857 162.173,247.172 162.387,246.752 162.650 C 245.712 163.299,245.329 162.852,242.844 158.099 C 240.846 154.276,237.566 149.117,236.199 147.648 C 235.814 147.234,235.500 146.724,235.500 146.514 C 235.500 146.080,224.626 135.015,224.200 135.015 C 224.047 135.015,222.555 134.074,220.884 132.925 C 215.540 129.250,212.527 127.966,210.956 128.695 C 210.478 128.917,209.603 129.293,209.012 129.530 C 208.275 129.826,207.862 130.333,207.701 131.139 C 207.571 131.786,207.313 132.409,207.127 132.524 C 206.557 132.876,206.714 171.040,207.292 172.700 C 208.036 174.834,210.638 176.916,212.561 176.916 C 213.096 176.916,219.253 178.854,220.072 179.281 C 220.443 179.474,221.087 179.631,221.504 179.631 C 221.921 179.631,222.371 179.806,222.502 180.019 C 222.634 180.233,223.158 180.407,223.666 180.407 C 224.175 180.407,224.698 180.582,224.830 180.795 C 224.962 181.009,225.486 181.183,225.994 181.183 C 226.502 181.183,227.026 181.358,227.158 181.571 C 227.290 181.785,227.651 181.959,227.961 181.959 C 228.271 181.959,229.265 182.289,230.169 182.692 C 231.074 183.095,232.548 183.702,233.446 184.040 C 237.442 185.546,243.590 188.516,244.593 189.425 C 245.007 189.800,245.517 190.107,245.726 190.107 C 245.936 190.107,246.428 190.397,246.820 190.751 C 247.212 191.106,247.855 191.586,248.250 191.818 C 250.622 193.214,252.344 194.650,255.189 197.604 C 256.950 199.432,258.390 201.079,258.390 201.264 C 258.390 201.449,258.914 202.103,259.554 202.716 C 260.194 203.329,260.718 204.033,260.718 204.280 C 260.718 204.527,261.046 205.026,261.446 205.389 C 263.037 206.828,267.313 216.963,267.313 219.292 C 267.313 219.799,267.510 220.410,267.751 220.651 C 268.038 220.938,268.200 223.276,268.220 227.421 C 268.249 233.445,268.056 235.109,266.809 239.573 C 266.145 241.950,261.863 250.760,261.058 251.406 C 260.925 251.513,260.345 252.299,259.770 253.152 C 258.253 255.402,250.377 263.434,249.687 263.434 C 249.496 263.434,246.751 265.415,245.173 266.692 C 244.254 267.436,234.294 272.357,233.707 272.357 C 233.426 272.357,232.574 272.706,231.814 273.133 C 231.054 273.560,229.924 273.909,229.303 273.909 C 228.682 273.909,228.066 274.083,227.934 274.297 C 227.802 274.510,227.278 274.685,226.770 274.685 C 226.262 274.685,225.752 274.836,225.638 275.021 C 225.524 275.206,224.684 275.468,223.772 275.604 C 222.860 275.739,220.980 276.031,219.593 276.252 C 218.206 276.474,215.849 276.797,214.355 276.970 C 207.119 277.809,207.089 277.882,206.807 295.441 L 206.596 308.632 199.525 308.738 L 192.454 308.844 192.322 295.159 C 192.139 276.211,192.316 276.704,184.837 274.281 C 180.753 272.957,180.521 272.871,177.498 271.555 C 172.820 269.518,168.684 267.318,165.790 265.327 C 164.897 264.712,164.024 264.209,163.849 264.208 C 163.674 264.207,162.621 263.517,161.510 262.675 C 156.142 258.604,151.452 259.228,149.961 264.210 C 149.802 264.743,149.439 265.703,149.155 266.343 C 148.871 266.984,148.187 268.642,147.635 270.029 C 145.593 275.159,146.117 274.685,142.485 274.685 C 140.724 274.685,139.282 274.572,139.282 274.435 C 139.282 274.297,138.769 271.547,138.141 268.324 C 136.709 260.974,134.353 248.549,134.050 246.751 C 133.924 246.004,133.660 244.607,133.463 243.647 C 133.266 242.687,132.933 240.941,132.723 239.767 C 132.267 237.221,131.585 233.638,131.097 231.232 C 130.903 230.272,130.586 228.438,130.394 227.158 C 130.202 225.878,129.780 223.521,129.457 221.920 C 129.135 220.320,128.764 218.221,128.634 217.256 L 128.398 215.501 130.251 215.004 C 133.163 214.223,134.619 213.860,137.536 213.189 C 139.030 212.846,140.788 212.400,141.444 212.199 C 143.878 211.452,144.058 211.585,146.082 215.616 C 147.127 217.696,148.436 220.097,148.992 220.951 C 149.548 221.804,150.294 223.133,150.649 223.904 C 151.004 224.675,151.560 225.525,151.884 225.794 C 152.208 226.063,152.473 226.444,152.473 226.641 C 152.473 227.107,156.241 232.692,157.399 233.944 C 157.891 234.475,158.293 235.053,158.293 235.229 C 158.293 235.681,169.416 246.703,171.290 248.109 C 183.163 257.012,191.659 258.211,191.659 250.982 C 191.659 250.387,191.833 249.792,192.047 249.661 C 192.297 249.506,192.435 242.228,192.435 229.098 C 192.435 215.968,192.297 208.690,192.047 208.535 C 191.833 208.404,191.659 207.543,191.659 206.622 C 191.659 204.774,189.028 201.746,187.422 201.746 C 187.004 201.746,186.573 201.604,186.466 201.431 C 186.359 201.258,184.996 200.716,183.436 200.227 C 181.877 199.738,180.298 199.182,179.928 198.990 C 179.557 198.799,178.913 198.642,178.496 198.642 C 178.079 198.642,177.629 198.468,177.498 198.254 C 177.366 198.041,176.924 197.866,176.517 197.866 C 176.109 197.866,175.154 197.517,174.394 197.090 C 173.634 196.663,172.753 196.314,172.437 196.314 C 172.120 196.314,171.558 196.154,171.188 195.959 C 170.817 195.763,169.903 195.345,169.156 195.030 C 168.409 194.714,166.925 194.079,165.858 193.618 C 164.791 193.157,163.569 192.636,163.143 192.459 C 161.359 191.722,153.816 187.973,153.637 187.736 C 153.531 187.594,152.904 187.153,152.245 186.756 C 149.583 185.150,147.937 183.903,146.478 182.388 C 145.635 181.512,144.793 180.795,144.607 180.795 C 144.201 180.795,143.162 179.799,143.162 179.408 C 143.162 179.255,142.420 178.291,141.513 177.265 C 138.478 173.831,137.729 172.742,135.833 169.008 C 134.063 165.521,132.554 161.284,131.564 157.026 C 131.012 154.648,131.009 146.821,131.561 144.428 C 133.004 138.162,135.196 133.091,138.391 128.620 C 139.415 127.188,140.427 125.729,140.640 125.377 C 141.152 124.534,147.004 118.661,148.060 117.931 C 148.513 117.618,149.997 116.583,151.357 115.632 C 154.024 113.768,160.800 110.184,161.658 110.184 C 161.947 110.184,162.486 110.028,162.857 109.836 C 165.433 108.505,174.832 106.485,181.183 105.897 C 192.286 104.870,192.030 105.301,192.294 87.188 L 192.458 76.025 199.527 76.131 L 206.596 76.237 206.689 89.816 M112.573 82.890 C 111.433 84.063,110.591 85.114,110.702 85.225 C 110.902 85.425,115.228 81.291,115.228 80.901 C 115.228 80.369,114.473 80.934,112.573 82.890 M107.652 87.692 C 106.391 88.967,105.488 90.010,105.646 90.010 C 106.037 90.010,110.297 85.726,110.102 85.530 C 110.016 85.444,108.914 86.417,107.652 87.692 M102.874 92.589 C 101.734 93.762,100.892 94.813,101.003 94.924 C 101.202 95.124,105.529 90.991,105.529 90.600 C 105.529 90.068,104.774 90.633,102.874 92.589 M97.953 97.391 C 96.692 98.666,95.789 99.709,95.947 99.709 C 96.337 99.709,100.598 95.425,100.402 95.229 C 100.317 95.144,99.215 96.117,97.953 97.391 M93.174 102.288 C 92.034 103.462,91.192 104.513,91.303 104.624 C 91.503 104.824,95.829 100.690,95.829 100.299 C 95.829 99.767,95.075 100.333,93.174 102.288 M88.648 106.697 C 88.037 107.335,87.665 107.856,87.821 107.856 C 88.221 107.856,90.128 105.905,89.926 105.703 C 89.834 105.612,89.259 106.059,88.648 106.697 M83.088 112.378 C 81.309 114.192,79.924 115.747,80.011 115.834 C 80.172 115.995,85.501 110.933,86.468 109.699 C 87.838 107.953,86.007 109.404,83.088 112.378 M76.144 119.296 C 75.879 119.597,75.800 119.928,75.969 120.032 C 76.137 120.136,76.486 119.884,76.744 119.471 C 77.284 118.607,76.859 118.483,76.144 119.296 M72.612 122.852 C 71.259 124.239,70.221 125.443,70.307 125.528 C 70.486 125.708,75.655 120.854,75.655 120.505 C 75.655 119.925,74.900 120.507,72.612 122.852 M180.795 125.315 C 180.795 125.529,179.835 125.703,178.661 125.703 C 177.488 125.703,176.528 125.878,176.528 126.091 C 176.528 126.305,176.014 126.479,175.387 126.479 C 174.759 126.479,174.138 126.654,174.006 126.867 C 173.874 127.081,173.340 127.255,172.819 127.255 C 172.298 127.255,171.872 127.430,171.872 127.643 C 171.872 127.856,171.615 128.031,171.302 128.031 C 170.704 128.031,168.353 129.255,167.375 130.074 C 165.209 131.889,163.725 133.492,163.725 134.014 C 163.725 134.351,163.594 134.628,163.434 134.630 C 163.085 134.633,162.173 136.512,162.173 137.226 C 162.173 137.503,161.998 137.730,161.785 137.730 C 161.547 137.730,161.397 139.606,161.397 142.580 C 161.397 145.554,161.547 147.430,161.785 147.430 C 161.998 147.430,162.173 147.744,162.173 148.128 C 162.173 148.995,163.040 150.914,163.434 150.918 C 163.594 150.920,163.725 151.186,163.725 151.510 C 163.725 152.068,169.254 157.905,169.783 157.905 C 169.921 157.905,170.872 158.507,171.897 159.244 C 178.731 164.154,186.297 166.048,188.009 163.278 C 190.024 160.018,189.800 131.596,187.741 129.364 C 187.234 128.814,187.003 127.993,187.003 126.745 L 187.003 124.927 183.899 124.927 C 182.089 124.927,180.795 125.089,180.795 125.315 M66.444 128.995 C 66.180 129.296,66.101 129.627,66.270 129.731 C 66.438 129.835,66.787 129.583,67.045 129.170 C 67.585 128.306,67.160 128.182,66.444 128.995 M183.511 144.284 C 183.511 160.887,183.627 159.988,181.585 159.268 C 161.597 152.215,158.931 135.638,176.916 130.226 C 180.061 129.280,182.591 128.832,183.220 129.112 C 183.380 129.183,183.511 136.010,183.511 144.284 M62.913 132.551 C 61.560 133.938,60.522 135.142,60.607 135.227 C 60.787 135.407,65.955 130.553,65.955 130.204 C 65.955 129.625,65.201 130.207,62.913 132.551 M52.936 142.872 C 51.668 144.195,51.143 144.846,51.769 144.317 C 53.702 142.686,55.566 140.790,55.400 140.624 C 55.313 140.538,54.204 141.549,52.936 142.872 M43.237 152.572 C 41.969 153.895,41.444 154.545,42.070 154.016 C 44.002 152.385,45.866 150.490,45.700 150.324 C 45.614 150.237,44.505 151.248,43.237 152.572 M33.924 161.870 C 32.870 162.974,32.353 163.625,32.774 163.316 C 33.996 162.421,36.174 160.196,36.000 160.022 C 35.912 159.934,34.978 160.766,33.924 161.870 M24.225 171.570 C 23.171 172.674,22.653 173.324,23.075 173.016 C 24.297 172.120,26.475 169.896,26.301 169.721 C 26.213 169.634,25.279 170.465,24.225 171.570 M15.321 180.411 C 14.710 181.049,14.338 181.571,14.494 181.571 C 14.894 181.571,16.801 179.620,16.599 179.418 C 16.507 179.326,15.932 179.773,15.321 180.411 M208.189 211.283 C 208.059 211.620,207.953 221.397,207.953 233.009 L 207.953 254.122 209.519 254.122 C 210.380 254.122,211.471 254.370,211.944 254.672 C 213.374 255.587,217.805 255.507,220.175 254.523 C 220.601 254.346,221.562 253.985,222.308 253.723 C 224.660 252.895,228.128 251.226,228.128 250.922 C 228.128 250.762,228.382 250.630,228.694 250.630 C 229.467 250.630,233.832 246.152,234.512 244.661 C 236.107 241.164,236.317 240.240,236.343 236.627 C 236.368 233.102,236.065 231.477,234.858 228.651 C 234.571 227.979,234.336 227.313,234.336 227.171 C 234.336 227.029,233.899 226.340,233.366 225.641 C 232.832 224.941,232.389 224.211,232.382 224.018 C 232.374 223.824,231.569 222.968,230.592 222.114 C 229.615 221.261,227.999 219.733,227.001 218.720 C 226.003 217.706,225.055 216.877,224.895 216.877 C 224.735 216.877,224.229 216.528,223.771 216.101 C 223.313 215.674,222.709 215.325,222.429 215.325 C 222.149 215.325,221.920 215.150,221.920 214.937 C 221.920 214.724,221.582 214.549,221.167 214.549 C 220.753 214.549,220.306 214.374,220.175 214.161 C 220.043 213.948,219.596 213.773,219.182 213.773 C 218.768 213.773,218.429 213.598,218.429 213.385 C 218.429 213.172,218.080 212.997,217.653 212.997 C 217.226 212.997,216.877 212.823,216.877 212.609 C 216.877 212.396,216.353 212.221,215.713 212.221 C 215.073 212.221,214.549 212.047,214.549 211.833 C 214.549 211.620,214.123 211.445,213.602 211.445 C 213.081 211.445,212.547 211.271,212.415 211.057 C 212.004 210.391,208.458 210.581,208.189 211.283 M215.713 216.605 C 237.089 225.943,235.611 246.320,213.288 250.036 L 211.833 250.278 211.833 232.801 C 211.833 219.076,211.937 215.326,212.318 215.330 C 212.585 215.332,214.113 215.906,215.713 216.605 M101.181 285.587 C 134.193 318.682,161.268 345.939,161.348 346.157 C 161.500 346.574,133.124 375.170,132.558 375.170 C 132.303 375.170,14.738 257.653,12.121 254.783 C 11.467 254.065,39.304 225.412,40.655 225.412 C 40.932 225.412,68.168 252.491,101.181 285.587 M366.295 239.816 L 380.698 254.219 320.223 314.695 C 286.962 347.956,259.621 375.126,259.466 375.073 C 258.882 374.872,230.450 346.284,230.548 345.996 C 230.781 345.306,350.936 225.412,351.393 225.412 C 351.667 225.412,358.373 231.894,366.295 239.816 M10.974 243.918 C 10.502 244.409,10.256 244.811,10.429 244.811 C 10.807 244.811,12.219 243.302,11.992 243.140 C 11.905 243.077,11.447 243.427,10.974 243.918 M6.547 248.343 C 4.920 250.028,3.785 251.384,4.025 251.357 C 4.265 251.330,5.759 249.934,7.345 248.253 C 8.930 246.573,10.065 245.217,9.867 245.239 C 9.668 245.261,8.174 246.658,6.547 248.343 M44.616 258.197 L 34.728 268.091 43.097 276.461 L 51.467 284.831 61.233 275.063 C 66.604 269.690,70.999 265.088,70.999 264.837 C 70.999 264.421,55.091 248.303,54.680 248.303 C 54.584 248.303,50.055 252.755,44.616 258.197 M58.480 260.807 C 60.457 262.777,62.076 264.595,62.076 264.847 C 62.076 265.099,59.699 267.690,56.795 270.605 L 51.515 275.903 50.520 275.003 C 49.324 273.921,46.412 271.005,44.826 269.303 L 43.677 268.070 49.088 262.648 C 52.065 259.666,54.586 257.226,54.692 257.226 C 54.797 257.226,56.502 258.837,58.480 260.807 M315.462 270.183 L 309.498 276.157 319.216 285.896 C 324.561 291.253,329.169 295.635,329.457 295.635 C 330.044 295.635,341.416 284.390,341.416 283.810 C 341.416 283.606,340.505 282.516,339.392 281.390 L 337.369 279.340 339.392 277.291 C 341.983 274.668,342.227 275.289,336.270 269.345 C 330.332 263.419,330.884 263.636,328.227 266.183 L 326.169 268.157 331.752 273.750 L 337.335 279.343 333.357 283.318 L 329.380 287.294 323.898 281.730 L 318.417 276.166 322.157 272.412 C 326.519 268.033,326.417 268.378,324.041 266.038 C 321.629 263.662,322.293 263.341,315.462 270.183 M66.992 280.484 C 61.727 285.807,57.420 290.321,57.420 290.515 C 57.420 290.709,58.373 291.769,59.539 292.871 L 61.657 294.875 64.317 292.151 C 67.726 288.660,67.209 288.501,73.737 295.052 C 76.819 298.145,79.604 300.676,79.927 300.677 C 80.541 300.679,93.501 287.931,93.501 287.325 C 93.501 286.813,77.512 270.805,77.000 270.805 C 76.760 270.805,72.256 275.161,66.992 280.484 M80.982 283.310 C 85.209 287.519,85.111 287.118,82.554 289.707 C 79.954 292.340,80.021 292.354,75.982 288.377 C 71.917 284.374,71.993 284.777,74.770 281.971 C 77.480 279.232,76.724 279.069,80.982 283.310 M295.503 290.074 C 286.435 299.146,286.883 298.366,289.344 300.791 C 291.689 303.101,291.442 303.149,294.862 299.706 L 297.756 296.793 305.332 304.362 C 313.942 312.964,313.133 312.511,315.533 310.074 C 317.904 307.667,318.406 308.555,309.790 299.903 L 302.257 292.338 305.154 289.419 C 308.593 285.954,308.494 286.518,306.099 284.059 C 303.602 281.496,304.704 280.870,295.503 290.074 M89.608 302.811 C 84.388 308.037,80.116 312.570,80.116 312.884 C 80.116 313.536,95.608 329.389,96.245 329.389 C 96.474 329.389,97.516 328.474,98.561 327.356 L 100.460 325.322 99.018 323.817 C 98.224 322.989,95.611 320.326,93.210 317.899 C 88.110 312.743,88.212 313.115,91.110 310.248 L 93.373 308.008 99.443 314.084 L 105.512 320.160 106.698 319.163 C 107.350 318.614,108.341 317.621,108.901 316.956 L 109.918 315.747 104.135 309.874 C 100.954 306.644,98.210 303.934,98.036 303.852 C 97.631 303.659,98.914 302.231,99.491 302.231 C 99.732 302.231,102.525 304.850,105.697 308.050 C 108.869 311.251,111.612 313.870,111.792 313.870 C 112.209 313.870,116.004 310.170,116.004 309.765 C 116.004 309.305,99.962 293.308,99.501 293.308 C 99.281 293.308,94.829 297.584,89.608 302.811 M273.119 312.488 C 263.853 321.761,264.415 320.810,266.786 323.207 C 269.167 325.614,268.936 325.655,272.360 322.208 L 275.253 319.295 282.829 326.864 C 291.440 335.467,290.631 335.014,293.031 332.576 C 295.421 330.150,295.904 331.007,287.306 322.417 L 279.752 314.871 282.650 311.893 C 286.081 308.367,286.022 308.682,283.692 306.387 C 281.252 303.984,282.114 303.487,273.119 312.488 M112.990 324.276 C 108.353 328.932,103.956 333.386,103.219 334.173 L 101.878 335.603 103.786 337.540 C 106.376 340.170,105.960 340.389,114.074 332.105 C 118.045 328.050,121.551 324.733,121.866 324.733 C 122.583 324.733,129.195 331.405,129.195 332.129 C 129.195 332.422,125.848 336.025,121.757 340.135 L 114.319 347.609 115.064 348.488 C 116.257 349.894,118.363 351.891,118.653 351.891 C 119.166 351.891,138.118 332.676,138.118 332.156 C 138.118 331.492,122.577 315.819,121.913 315.814 C 121.642 315.812,117.627 319.620,112.990 324.276 "
              stroke="none" fill="#090a07" fill-rule="evenodd"></path>
        <path id="path1"
              d="M194.956 1.712 C 194.316 1.938,193.639 2.368,193.452 2.667 C 193.265 2.967,192.082 4.191,190.823 5.388 C 184.820 11.098,183.122 12.790,183.106 13.075 C 183.096 13.246,182.126 14.258,180.949 15.325 C 177.206 18.718,173.424 22.454,173.409 22.775 C 173.401 22.945,172.242 24.132,170.834 25.412 C 169.426 26.693,167.294 28.757,166.096 30.000 C 164.899 31.242,162.722 33.425,161.260 34.849 C 159.798 36.274,157.616 38.463,156.411 39.714 C 155.205 40.966,153.031 43.148,151.578 44.564 C 150.125 45.980,147.943 48.156,146.728 49.400 C 143.776 52.423,140.230 55.967,137.471 58.652 C 136.227 59.864,134.161 61.994,132.881 63.385 C 131.600 64.777,130.412 65.925,130.240 65.936 C 129.928 65.955,127.575 68.342,123.181 73.097 C 121.901 74.482,120.719 75.624,120.555 75.635 C 120.212 75.658,115.228 80.577,115.228 80.894 C 115.228 81.167,111.041 85.354,110.767 85.354 C 110.494 85.354,105.529 90.319,105.529 90.593 C 105.529 90.867,101.342 95.053,101.068 95.053 C 100.794 95.053,95.829 100.019,95.829 100.292 C 95.829 100.609,91.623 104.750,91.279 104.772 C 91.114 104.783,89.932 105.929,88.652 107.318 C 85.932 110.269,82.566 113.667,78.984 117.077 C 77.580 118.414,76.431 119.690,76.431 119.913 C 76.431 120.135,76.256 120.209,76.043 120.078 C 75.829 119.946,75.648 120.066,75.640 120.346 C 75.632 120.625,74.474 121.901,73.067 123.181 C 69.267 126.639,66.731 129.226,66.731 129.645 C 66.731 129.849,66.557 129.909,66.343 129.777 C 66.130 129.645,65.949 129.766,65.941 130.045 C 65.932 130.324,64.778 131.600,63.374 132.881 C 59.249 136.644,56.256 139.680,56.256 140.100 C 56.256 140.316,56.081 140.384,55.868 140.252 C 55.655 140.120,55.474 140.241,55.467 140.520 C 55.460 140.800,54.476 141.901,53.281 142.968 C 49.829 146.049,46.557 149.373,46.557 149.800 C 46.557 150.015,46.382 150.083,46.169 149.952 C 45.955 149.820,45.775 149.940,45.768 150.220 C 45.761 150.499,44.780 151.600,43.588 152.667 C 39.705 156.143,37.633 158.234,37.633 158.679 C 37.633 158.918,37.459 159.007,37.245 158.875 C 37.032 158.743,36.857 158.918,36.857 159.263 C 36.857 159.608,36.683 159.783,36.469 159.651 C 36.256 159.519,36.075 159.640,36.068 159.919 C 36.060 160.198,35.259 161.125,34.287 161.979 C 31.266 164.633,27.934 168.012,27.934 168.422 C 27.934 168.638,27.759 168.706,27.546 168.574 C 27.333 168.442,27.158 168.617,27.158 168.962 C 27.158 169.307,26.984 169.482,26.770 169.350 C 26.557 169.218,26.376 169.339,26.368 169.618 C 26.361 169.898,25.567 170.824,24.605 171.678 C 21.389 174.531,18.235 177.720,18.235 178.119 C 18.235 178.336,18.060 178.405,17.847 178.274 C 17.633 178.142,17.459 178.316,17.459 178.661 C 17.459 179.007,17.284 179.181,17.071 179.049 C 16.857 178.918,16.683 179.003,16.683 179.238 C 16.683 179.794,14.906 181.571,14.350 181.571 C 14.114 181.571,14.029 181.746,14.161 181.959 C 14.293 182.173,14.244 182.347,14.051 182.347 C 13.574 182.347,8.535 187.319,8.535 187.790 C 8.535 187.997,8.403 188.167,8.242 188.167 C 8.081 188.167,7.710 188.706,7.419 189.365 C 6.802 190.759,7.409 192.435,8.532 192.435 C 8.885 192.435,51.610 149.879,103.478 97.866 C 155.345 45.854,197.898 3.186,198.041 3.049 C 198.701 2.413,196.128 1.298,194.956 1.712 M194.544 11.348 L 193.404 12.609 194.760 11.445 C 195.506 10.805,196.190 10.238,196.280 10.184 C 196.370 10.131,196.273 10.087,196.064 10.087 C 195.855 10.087,195.171 10.655,194.544 11.348 M205.238 19.205 C 210.035 24.006,214.048 27.934,214.155 27.934 C 214.261 27.934,210.423 24.006,205.626 19.205 C 200.828 14.403,196.815 10.475,196.709 10.475 C 196.602 10.475,200.440 14.403,205.238 19.205 M185.637 20.272 L 182.153 23.860 185.742 20.377 C 189.075 17.141,189.507 16.683,189.226 16.683 C 189.168 16.683,187.553 18.298,185.637 20.272 M98.933 106.984 L 18.429 187.585 99.030 107.081 C 173.969 32.233,179.805 26.382,179.534 26.382 C 179.481 26.382,143.210 62.653,98.933 106.984 M217.847 31.814 C 219.758 33.734,221.410 35.306,221.516 35.306 C 221.623 35.306,220.146 33.734,218.235 31.814 C 216.323 29.893,214.672 28.322,214.565 28.322 C 214.458 28.322,215.935 29.893,217.847 31.814 M229.486 43.453 C 230.319 44.306,231.089 45.005,231.195 45.005 C 231.302 45.005,230.707 44.306,229.874 43.453 C 229.040 42.599,228.271 41.901,228.165 41.901 C 228.058 41.901,228.652 42.599,229.486 43.453 M239.185 53.152 C 240.019 54.006,240.788 54.704,240.895 54.704 C 241.001 54.704,240.407 54.006,239.573 53.152 C 238.740 52.299,237.971 51.600,237.864 51.600 C 237.757 51.600,238.352 52.299,239.185 53.152 M248.885 62.852 C 249.718 63.705,250.487 64.403,250.594 64.403 C 250.701 64.403,250.106 63.705,249.273 62.852 C 248.439 61.998,247.670 61.300,247.563 61.300 C 247.456 61.300,248.051 61.998,248.885 62.852 M183.850 67.798 C 183.375 68.403,183.386 68.423,183.951 67.982 C 184.443 67.598,187.539 67.511,197.784 67.594 C 205.044 67.653,210.903 67.570,210.804 67.410 C 210.368 66.707,184.412 67.081,183.850 67.798 M183.215 82.534 L 183.123 96.202 182.250 96.394 C 181.770 96.500,180.854 96.652,180.213 96.732 C 179.285 96.848,179.369 96.889,180.624 96.935 C 183.666 97.047,183.536 97.721,183.415 82.444 L 183.307 68.865 183.215 82.534 M257.226 71.120 C 257.226 71.187,257.793 71.755,258.487 72.381 L 259.748 73.521 258.608 72.260 C 257.546 71.085,257.226 70.821,257.226 71.120 M266.925 80.820 C 266.925 80.887,267.493 81.454,268.186 82.081 L 269.447 83.220 268.308 81.959 C 267.245 80.784,266.925 80.520,266.925 80.820 M169.350 98.157 C 168.362 98.582,169.382 98.582,170.708 98.157 C 171.488 97.907,171.526 97.844,170.902 97.835 C 170.475 97.829,169.777 97.974,169.350 98.157 M221.145 103.763 C 221.145 103.870,221.668 104.228,222.308 104.559 C 222.949 104.890,223.472 105.073,223.472 104.967 C 223.472 104.860,222.949 104.502,222.308 104.171 C 221.668 103.840,221.145 103.656,221.145 103.763 M183.123 143.860 L 183.317 158.875 183.419 144.156 C 183.475 136.061,183.388 129.304,183.225 129.141 C 183.062 128.978,183.016 135.602,183.123 143.860 M168.000 135.200 C 167.062 136.156,166.371 136.995,166.465 137.064 C 166.558 137.133,167.401 136.351,168.338 135.326 C 170.486 132.977,170.263 132.895,168.000 135.200 M165.130 139.879 C 164.997 140.226,164.903 140.801,164.922 141.157 C 164.940 141.513,165.109 141.289,165.297 140.660 C 165.663 139.435,165.533 138.829,165.130 139.879 M122.689 142.386 C 122.689 143.133,122.769 143.438,122.867 143.065 C 122.964 142.692,122.964 142.081,122.867 141.707 C 122.769 141.334,122.689 141.639,122.689 142.386 M222.696 142.895 C 222.696 142.962,223.264 143.530,223.957 144.156 L 225.218 145.296 224.079 144.035 C 223.017 142.860,222.696 142.596,222.696 142.895 M164.894 144.164 C 164.898 144.573,165.078 145.170,165.294 145.490 C 165.582 145.915,165.618 145.758,165.428 144.908 C 165.109 143.481,164.886 143.172,164.894 144.164 M122.301 145.490 C 122.301 146.237,122.381 146.542,122.479 146.169 C 122.576 145.795,122.576 145.184,122.479 144.811 C 122.381 144.437,122.301 144.743,122.301 145.490 M136.760 183.123 C 137.811 184.190,138.758 185.063,138.865 185.063 C 138.972 185.063,138.199 184.190,137.148 183.123 C 136.098 182.056,135.150 181.183,135.044 181.183 C 134.937 181.183,135.710 182.056,136.760 183.123 M22.890 197.988 C 22.890 198.054,23.458 198.622,24.151 199.248 L 25.412 200.388 24.273 199.127 C 23.211 197.952,22.890 197.688,22.890 197.988 M35.006 221.145 C 34.548 221.572,34.032 221.920,33.859 221.920 C 33.685 221.920,29.243 226.242,23.987 231.523 C 13.019 242.544,11.593 243.890,11.058 243.712 C 10.844 243.640,10.798 243.711,10.956 243.869 C 11.113 244.026,9.804 245.620,8.046 247.410 C 6.288 249.200,4.791 250.832,4.720 251.036 C 4.649 251.240,4.344 251.406,4.041 251.406 C 3.739 251.406,3.492 251.745,3.492 252.159 C 3.492 252.574,3.341 253.006,3.156 253.120 C 2.592 253.469,3.117 255.108,3.962 255.635 C 5.080 256.334,38.150 223.500,37.661 222.178 C 37.118 220.710,35.958 220.259,35.006 221.145 M25.819 239.749 C 12.282 253.289,11.521 254.124,12.121 254.783 C 14.738 257.653,132.303 375.170,132.558 375.170 C 133.124 375.170,161.500 346.574,161.348 346.157 C 161.063 345.379,41.148 225.412,40.655 225.412 C 40.378 225.412,33.702 231.864,25.819 239.749 M290.772 285.553 C 257.705 318.631,230.604 345.830,230.548 345.996 C 230.450 346.284,258.882 374.872,259.466 375.073 C 259.621 375.126,286.962 347.956,320.223 314.695 L 380.698 254.219 366.295 239.816 C 358.373 231.894,351.667 225.412,351.393 225.412 C 351.118 225.412,323.839 252.476,290.772 285.553 M51.600 226.698 C 51.600 226.764,52.168 227.332,52.861 227.958 L 54.122 229.098 52.983 227.837 C 51.921 226.662,51.600 226.398,51.600 226.698 M61.300 236.397 C 61.300 236.464,61.867 237.031,62.561 237.658 L 63.822 238.797 62.682 237.536 C 61.620 236.361,61.300 236.097,61.300 236.397 M62.927 256.341 C 67.367 260.762,70.999 264.585,70.999 264.837 C 70.999 265.088,66.604 269.690,61.233 275.063 L 51.467 284.831 43.097 276.461 L 34.728 268.091 44.616 258.197 C 50.055 252.755,54.584 248.303,54.680 248.303 C 54.777 248.303,58.488 251.920,62.927 256.341 M49.088 262.648 L 43.677 268.070 44.826 269.303 C 46.412 271.005,49.324 273.921,50.520 275.003 L 51.515 275.903 56.795 270.605 C 59.699 267.690,62.076 265.099,62.076 264.847 C 62.076 264.417,55.108 257.226,54.692 257.226 C 54.586 257.226,52.065 259.666,49.088 262.648 M324.041 266.038 C 326.417 268.378,326.519 268.033,322.157 272.412 L 318.417 276.166 323.898 281.730 L 329.380 287.294 333.357 283.318 L 337.335 279.343 331.752 273.750 L 326.169 268.157 328.227 266.183 C 330.884 263.636,330.332 263.419,336.270 269.345 C 342.227 275.289,341.983 274.668,339.392 277.291 L 337.369 279.340 339.392 281.390 C 340.505 282.516,341.416 283.606,341.416 283.810 C 341.416 284.390,330.044 295.635,329.457 295.635 C 329.169 295.635,324.561 291.253,319.216 285.896 L 309.498 276.157 315.462 270.183 C 322.293 263.341,321.629 263.662,324.041 266.038 M85.469 278.891 C 89.887 283.338,93.501 287.134,93.501 287.325 C 93.501 287.931,80.541 300.679,79.927 300.677 C 79.604 300.676,76.819 298.145,73.737 295.052 C 67.209 288.501,67.726 288.660,64.317 292.151 L 61.657 294.875 59.539 292.871 C 58.373 291.769,57.420 290.709,57.420 290.515 C 57.420 289.998,76.486 270.805,77.000 270.805 C 77.240 270.805,81.051 274.444,85.469 278.891 M74.770 281.971 C 71.993 284.777,71.917 284.374,75.982 288.377 C 80.021 292.354,79.954 292.340,82.554 289.707 C 85.111 287.118,85.209 287.519,80.982 283.310 C 76.724 279.069,77.480 279.232,74.770 281.971 M306.099 284.059 C 308.494 286.518,308.593 285.954,305.154 289.419 L 302.257 292.338 309.790 299.903 C 318.406 308.555,317.904 307.667,315.533 310.074 C 313.133 312.511,313.942 312.964,305.332 304.362 L 297.756 296.793 294.862 299.706 C 291.442 303.149,291.689 303.101,289.344 300.791 C 286.883 298.366,286.435 299.146,295.503 290.074 C 304.704 280.870,303.602 281.496,306.099 284.059 M107.953 301.385 C 117.192 310.654,116.547 309.536,114.062 311.969 C 111.578 314.401,112.347 314.761,105.697 308.050 C 102.525 304.850,99.732 302.231,99.491 302.231 C 98.914 302.231,97.631 303.659,98.036 303.852 C 98.210 303.934,100.954 306.644,104.135 309.874 L 109.918 315.747 108.901 316.956 C 108.341 317.621,107.350 318.614,106.698 319.163 L 105.512 320.160 99.443 314.084 L 93.373 308.008 91.110 310.248 C 88.212 313.115,88.110 312.743,93.210 317.899 C 95.611 320.326,98.224 322.989,99.018 323.817 L 100.460 325.322 98.561 327.356 C 97.516 328.474,96.474 329.389,96.245 329.389 C 95.608 329.389,80.116 313.536,80.116 312.884 C 80.116 312.246,98.870 293.307,99.501 293.308 C 99.722 293.308,103.526 296.943,107.953 301.385 M283.692 306.387 C 286.022 308.682,286.081 308.367,282.650 311.893 L 279.752 314.871 287.306 322.417 C 295.904 331.007,295.421 330.150,293.031 332.576 C 290.631 335.014,291.440 335.467,282.829 326.864 L 275.253 319.295 272.360 322.208 C 268.936 325.655,269.167 325.614,266.786 323.207 C 264.415 320.810,263.853 321.761,273.119 312.488 C 282.114 303.487,281.252 303.984,283.692 306.387 M130.262 323.725 C 134.583 328.074,138.118 331.868,138.118 332.156 C 138.118 332.676,119.166 351.891,118.653 351.891 C 118.363 351.891,116.257 349.894,115.064 348.488 L 114.319 347.609 121.757 340.135 C 125.848 336.025,129.195 332.422,129.195 332.129 C 129.195 331.405,122.583 324.733,121.866 324.733 C 121.551 324.733,118.045 328.050,114.074 332.105 C 105.960 340.389,106.376 340.170,103.786 337.540 L 101.878 335.603 103.219 334.173 C 107.945 329.128,121.506 315.811,121.913 315.814 C 122.184 315.816,125.941 319.376,130.262 323.725 "
              stroke="none" fill="#6ad033" fill-rule="evenodd"></path>
        <path id="path2"
              d="M314.297 128.613 C 317.625 132.027,321.116 135.630,322.055 136.620 C 322.995 137.609,325.247 139.975,327.061 141.876 C 334.628 149.809,334.810 150.145,331.539 150.145 C 330.783 150.145,330.165 150.320,330.165 150.533 C 330.165 150.747,329.467 150.921,328.613 150.921 C 327.759 150.921,327.061 151.096,327.061 151.309 C 327.061 151.523,326.275 151.697,325.315 151.697 C 324.355 151.697,323.569 151.872,323.569 152.085 C 323.569 152.299,322.871 152.473,322.017 152.473 C 321.164 152.473,320.466 152.648,320.466 152.861 C 320.466 153.075,319.767 153.249,318.914 153.249 C 318.060 153.249,317.362 153.424,317.362 153.637 C 317.362 153.851,316.576 154.025,315.616 154.025 C 314.656 154.025,313.870 154.200,313.870 154.413 C 313.870 154.627,313.346 154.801,312.706 154.801 C 312.066 154.801,311.542 154.976,311.542 155.189 C 311.542 155.403,310.844 155.577,309.990 155.577 C 309.137 155.577,308.438 155.752,308.438 155.965 C 308.438 156.178,307.653 156.353,306.693 156.353 C 305.732 156.353,304.947 156.528,304.947 156.741 C 304.947 156.954,304.248 157.129,303.395 157.129 C 302.541 157.129,301.843 157.304,301.843 157.517 C 301.843 157.730,301.145 157.905,300.291 157.905 C 299.170 157.905,298.739 158.067,298.739 158.487 C 298.739 158.918,298.286 159.069,296.993 159.069 C 296.033 159.069,295.247 159.243,295.247 159.457 C 295.247 159.670,294.549 159.845,293.695 159.845 C 292.842 159.845,292.144 160.019,292.144 160.233 C 292.144 160.446,291.445 160.621,290.592 160.621 C 289.738 160.621,289.040 160.795,289.040 161.009 C 289.040 161.222,288.254 161.397,287.294 161.397 C 286.334 161.397,285.548 161.571,285.548 161.785 C 285.548 161.998,285.024 162.173,284.384 162.173 C 283.744 162.173,283.220 162.347,283.220 162.561 C 283.220 162.774,282.522 162.949,281.668 162.949 C 280.815 162.949,280.116 163.123,280.116 163.337 C 280.116 163.550,279.331 163.725,278.371 163.725 C 277.410 163.725,276.625 163.899,276.625 164.113 C 276.625 164.326,275.926 164.500,275.073 164.500 C 274.219 164.500,273.521 164.675,273.521 164.888 C 273.521 165.102,272.823 165.276,271.969 165.276 C 271.115 165.276,270.417 165.451,270.417 165.664 C 270.417 165.878,269.719 166.052,268.865 166.052 C 268.012 166.052,267.313 166.227,267.313 166.440 C 267.313 166.654,266.528 166.828,265.567 166.828 C 264.607 166.828,263.822 167.003,263.822 167.216 C 263.822 167.430,263.123 167.604,262.270 167.604 C 261.149 167.604,260.718 167.766,260.718 168.186 C 260.718 168.607,260.287 168.768,259.166 168.768 C 258.312 168.768,257.614 168.943,257.614 169.156 C 257.614 169.370,256.828 169.544,255.868 169.544 C 254.908 169.544,254.122 169.719,254.122 169.932 C 254.122 170.145,253.598 170.320,252.958 170.320 C 252.318 170.320,251.794 170.495,251.794 170.708 C 251.794 170.921,251.096 171.096,250.242 171.096 C 249.389 171.096,248.691 171.271,248.691 171.484 C 248.691 171.697,247.905 171.872,246.945 171.872 C 245.984 171.872,245.199 172.047,245.199 172.260 C 245.199 172.473,244.500 172.648,243.647 172.648 C 242.793 172.648,242.095 172.823,242.095 173.036 C 242.095 173.249,241.397 173.424,240.543 173.424 C 239.690 173.424,238.991 173.598,238.991 173.812 C 238.991 174.025,238.206 174.200,237.245 174.200 C 236.285 174.200,235.500 174.374,235.500 174.588 C 235.500 174.801,235.150 174.976,234.724 174.976 C 234.297 174.976,233.948 174.801,233.948 174.588 C 233.948 174.374,233.434 174.200,232.807 174.200 C 232.179 174.200,231.558 174.025,231.426 173.812 C 231.294 173.598,230.770 173.424,230.262 173.424 C 229.754 173.424,229.230 173.249,229.098 173.036 C 228.966 172.823,228.442 172.648,227.934 172.648 C 227.426 172.648,226.902 172.473,226.770 172.260 C 226.638 172.047,226.189 171.872,225.772 171.872 C 225.355 171.872,224.711 171.719,224.340 171.532 C 223.321 171.017,220.967 170.317,220.341 170.343 C 220.036 170.356,221.532 170.973,223.666 171.715 C 225.800 172.457,227.895 173.216,228.322 173.402 C 228.749 173.587,231.018 174.489,233.366 175.406 C 259.135 185.469,273.223 203.483,273.242 226.396 C 273.248 232.752,272.780 235.615,270.711 241.901 C 268.597 248.319,261.695 259.047,257.352 262.665 C 256.962 262.989,255.485 264.237,254.068 265.437 C 246.450 271.891,235.555 277.403,225.800 279.737 C 221.135 280.853,214.421 282.056,212.855 282.056 L 211.833 282.056 211.833 297.353 C 211.833 310.743,211.757 312.727,211.224 313.260 C 210.599 313.885,185.674 314.229,184.125 313.635 C 183.578 313.425,183.511 311.576,183.511 296.771 C 183.511 277.706,183.997 279.869,179.416 278.558 C 175.326 277.389,165.462 272.837,162.501 270.754 C 161.934 270.355,161.362 270.029,161.230 270.029 C 161.097 270.029,159.557 269.071,157.808 267.899 C 153.973 265.332,154.470 264.960,151.342 272.745 C 150.013 276.052,148.570 279.064,148.135 279.437 C 147.006 280.406,133.093 280.467,132.133 279.507 C 131.441 278.815,131.500 279.047,130.167 271.775 C 129.620 268.788,129.016 265.558,128.825 264.597 C 128.634 263.637,128.291 261.804,128.062 260.524 C 127.833 259.243,127.369 256.799,127.029 255.092 C 126.690 253.385,126.253 251.028,126.058 249.855 C 125.863 248.681,125.539 246.848,125.336 245.781 C 125.134 244.714,124.269 240.087,123.414 235.500 C 122.559 230.912,121.502 225.325,121.067 223.084 C 120.631 220.844,120.084 217.963,119.851 216.683 C 119.618 215.403,119.251 213.482,119.034 212.415 C 118.817 211.348,118.702 210.045,118.777 209.518 C 118.990 208.027,119.192 207.955,130.747 205.255 C 134.481 204.382,138.147 203.509,138.894 203.314 C 142.916 202.263,143.906 202.085,145.087 202.201 C 145.799 202.271,146.524 202.590,146.698 202.910 C 146.872 203.230,148.044 205.587,149.303 208.147 C 156.698 223.185,165.330 234.767,173.618 240.772 C 174.471 241.391,175.257 242.008,175.364 242.145 C 175.470 242.281,176.256 242.793,177.110 243.282 C 181.359 245.714,182.581 246.349,183.026 246.356 C 183.408 246.361,183.511 242.153,183.511 226.586 L 183.511 206.809 182.444 206.269 C 181.857 205.973,179.457 205.085,177.110 204.297 C 174.762 203.510,172.493 202.717,172.066 202.535 C 171.639 202.353,169.195 201.391,166.634 200.397 C 158.495 197.238,153.024 194.664,146.515 190.931 C 143.085 188.965,136.830 183.425,133.319 179.243 C 132.419 178.171,132.549 178.420,133.658 179.888 C 135.299 182.061,139.260 186.073,141.605 187.935 C 144.710 190.403,147.024 192.047,147.393 192.047 C 147.627 192.047,147.820 192.177,147.824 192.338 C 147.827 192.498,148.700 193.056,149.764 193.578 C 150.827 194.100,151.697 194.667,151.697 194.839 C 151.697 195.010,152.047 195.150,152.473 195.150 C 152.900 195.150,153.249 195.325,153.249 195.538 C 153.249 195.752,152.726 195.926,152.085 195.926 C 151.445 195.926,150.921 196.101,150.921 196.314 C 150.921 196.528,150.136 196.702,149.176 196.702 C 147.882 196.702,147.430 196.853,147.430 197.284 C 147.430 197.704,146.999 197.866,145.878 197.866 C 145.024 197.866,144.326 198.041,144.326 198.254 C 144.326 198.468,143.628 198.642,142.774 198.642 C 141.920 198.642,141.222 198.817,141.222 199.030 C 141.222 199.243,140.611 199.418,139.864 199.418 C 139.117 199.418,138.506 199.593,138.506 199.806 C 138.506 200.019,137.808 200.194,136.954 200.194 C 136.101 200.194,135.403 200.369,135.403 200.582 C 135.403 200.795,134.704 200.970,133.851 200.970 C 132.997 200.970,132.299 201.145,132.299 201.358 C 132.299 201.571,131.513 201.746,130.553 201.746 C 129.593 201.746,128.807 201.920,128.807 202.134 C 128.807 202.347,128.109 202.522,127.255 202.522 C 126.402 202.522,125.703 202.696,125.703 202.910 C 125.703 203.123,125.005 203.298,124.151 203.298 C 123.298 203.298,122.599 203.472,122.599 203.686 C 122.599 203.899,121.814 204.074,120.854 204.074 C 119.893 204.074,119.108 204.248,119.108 204.462 C 119.108 204.675,118.409 204.850,117.556 204.850 C 116.702 204.850,116.004 205.024,116.004 205.238 C 116.004 205.451,115.306 205.626,114.452 205.626 C 113.598 205.626,112.900 205.800,112.900 206.014 C 112.900 206.227,112.289 206.402,111.542 206.402 C 110.594 206.402,110.184 206.577,110.184 206.984 C 110.184 207.404,109.753 207.565,108.632 207.565 C 107.779 207.565,107.081 207.740,107.081 207.953 C 107.081 208.167,106.382 208.341,105.529 208.341 C 104.675 208.341,103.977 208.516,103.977 208.729 C 103.977 208.943,103.191 209.117,102.231 209.117 C 101.271 209.117,100.485 209.292,100.485 209.505 C 100.485 209.719,99.787 209.893,98.933 209.893 C 98.080 209.893,97.381 210.068,97.381 210.281 C 97.381 210.495,96.683 210.669,95.829 210.669 C 94.976 210.669,94.277 210.844,94.277 211.057 C 94.277 211.271,93.492 211.445,92.532 211.445 C 91.571 211.445,90.786 211.620,90.786 211.833 C 90.786 212.047,90.087 212.221,89.234 212.221 C 88.380 212.221,87.682 212.396,87.682 212.609 C 87.682 212.823,86.984 212.997,86.130 212.997 C 85.276 212.997,84.578 213.172,84.578 213.385 C 84.578 213.598,83.792 213.773,82.832 213.773 C 81.872 213.773,81.086 213.948,81.086 214.161 C 81.086 214.374,80.563 214.549,79.922 214.549 C 79.282 214.549,78.758 214.724,78.758 214.937 C 78.758 215.150,78.060 215.325,77.207 215.325 C 76.353 215.325,75.655 215.500,75.655 215.713 C 75.655 215.926,74.956 216.101,74.103 216.101 C 72.982 216.101,72.551 216.263,72.551 216.683 C 72.551 217.114,72.098 217.265,70.805 217.265 C 69.845 217.265,69.059 217.439,69.059 217.653 C 69.059 217.866,68.361 218.041,67.507 218.041 C 66.654 218.041,65.955 218.215,65.955 218.429 C 65.955 218.642,65.257 218.817,64.403 218.817 C 63.550 218.817,62.852 218.991,62.852 219.205 C 62.852 219.418,62.066 219.593,61.106 219.593 C 60.145 219.593,59.360 219.767,59.360 219.981 C 59.360 220.194,58.661 220.369,57.808 220.369 C 56.954 220.369,56.256 220.543,56.256 220.757 C 56.256 220.970,55.558 221.145,54.704 221.145 C 53.851 221.145,53.152 221.319,53.152 221.532 C 53.152 221.746,52.541 221.920,51.794 221.920 C 51.048 221.920,50.436 222.095,50.436 222.308 C 50.436 223.553,45.814 220.564,44.153 218.246 C 44.005 218.039,43.780 217.972,43.654 218.098 C 43.393 218.359,195.461 370.902,195.982 370.902 C 196.309 370.902,376.037 191.083,376.237 190.556 C 376.290 190.415,361.015 175.023,342.291 156.352 C 323.567 137.682,310.970 125.199,314.297 128.613 M262.689 146.654 C 262.678 146.974,262.917 148.021,263.220 148.982 C 263.522 149.942,263.779 150.466,263.790 150.145 C 263.801 149.825,263.562 148.778,263.260 147.818 C 262.957 146.857,262.700 146.334,262.689 146.654 M263.982 151.503 C 264.964 156.128,265.972 159.504,266.083 158.537 C 266.153 157.924,266.022 157.234,265.792 157.004 C 265.562 156.774,265.373 156.240,265.373 155.818 C 265.373 155.038,264.775 152.914,264.157 151.503 L 263.817 150.727 263.982 151.503 M231.829 154.704 C 233.129 156.726,233.560 157.301,233.560 157.013 C 233.560 156.640,231.576 153.637,231.330 153.637 C 231.227 153.637,231.451 154.117,231.829 154.704 M234.549 159.495 C 235.101 160.584,235.630 161.396,235.725 161.300 C 235.910 161.115,233.997 157.517,233.714 157.517 C 233.622 157.517,233.998 158.407,234.549 159.495 M265.590 161.749 C 265.470 161.942,264.368 162.397,263.142 162.759 C 261.915 163.120,260.475 163.555,259.942 163.724 C 259.408 163.893,257.704 164.394,256.155 164.836 C 254.606 165.278,252.162 165.987,250.724 166.412 C 239.345 169.772,239.484 169.774,238.169 166.246 C 237.909 165.548,237.658 165.290,237.543 165.601 C 237.438 165.887,237.546 166.315,237.784 166.552 C 238.021 166.789,238.215 167.234,238.215 167.540 C 238.215 168.375,240.250 169.980,240.931 169.681 C 241.251 169.541,242.082 169.346,242.778 169.248 C 243.473 169.150,244.138 168.915,244.255 168.725 C 244.373 168.536,244.972 168.380,245.587 168.380 C 246.202 168.380,246.813 168.206,246.945 167.992 C 247.077 167.779,247.785 167.604,248.520 167.604 C 249.254 167.604,249.855 167.430,249.855 167.216 C 249.855 167.003,250.455 166.828,251.190 166.828 C 251.924 166.828,252.632 166.654,252.764 166.440 C 252.896 166.227,253.507 166.052,254.122 166.052 C 254.737 166.052,255.348 165.878,255.480 165.664 C 255.612 165.451,256.223 165.276,256.838 165.276 C 257.453 165.276,258.064 165.102,258.196 164.888 C 258.328 164.675,258.864 164.500,259.388 164.500 C 259.912 164.500,260.643 164.340,261.014 164.145 C 261.385 163.949,262.692 163.496,263.919 163.139 C 265.269 162.745,266.149 162.273,266.149 161.943 C 266.149 161.318,265.907 161.234,265.590 161.749 M235.887 161.931 C 235.887 162.384,237.126 164.944,237.273 164.796 C 237.477 164.593,236.360 161.785,236.076 161.785 C 235.972 161.785,235.887 161.851,235.887 161.931 M215.519 169.156 C 216.587 169.615,216.966 169.615,216.683 169.156 C 216.551 168.943,216.061 168.780,215.593 168.795 C 214.773 168.822,214.771 168.835,215.519 169.156 M218.041 169.932 C 218.805 170.426,219.704 170.426,219.399 169.932 C 219.267 169.719,218.776 169.547,218.309 169.550 C 217.618 169.555,217.568 169.626,218.041 169.932 M38.898 213.922 C 40.657 215.711,42.173 217.102,42.268 217.014 C 42.483 216.816,36.408 210.669,35.998 210.669 C 35.835 210.669,37.140 212.133,38.898 213.922 M211.833 232.801 L 211.833 250.278 213.288 250.036 C 232.806 246.787,237.249 228.936,220.917 219.381 C 218.185 217.782,212.914 215.325,212.218 215.325 C 211.969 215.325,211.833 221.512,211.833 232.801 "
              stroke="none" fill="#fb7e12" fill-rule="evenodd"></path>
        <path id="path3"
              d="M148.495 58.472 C 82.253 124.751,37.740 169.425,35.783 171.591 C 34.871 172.599,34.029 173.424,33.912 173.424 C 33.630 173.424,32.590 174.470,32.590 174.754 C 32.590 174.876,33.026 174.976,33.560 174.976 C 34.093 174.976,34.530 174.801,34.530 174.588 C 34.530 174.374,35.228 174.200,36.081 174.200 C 36.935 174.200,37.633 174.025,37.633 173.812 C 37.633 173.598,38.332 173.424,39.185 173.424 C 40.039 173.424,40.737 173.249,40.737 173.036 C 40.737 172.823,41.523 172.648,42.483 172.648 C 43.443 172.648,44.229 172.473,44.229 172.260 C 44.229 172.047,44.927 171.872,45.781 171.872 C 46.634 171.872,47.333 171.697,47.333 171.484 C 47.333 171.271,47.856 171.096,48.497 171.096 C 49.137 171.096,49.661 170.921,49.661 170.708 C 49.661 170.495,50.446 170.320,51.406 170.320 C 52.367 170.320,53.152 170.145,53.152 169.932 C 53.152 169.719,53.851 169.544,54.704 169.544 C 55.558 169.544,56.256 169.370,56.256 169.156 C 56.256 168.943,56.954 168.768,57.808 168.768 C 58.929 168.768,59.360 168.607,59.360 168.186 C 59.360 167.755,59.812 167.604,61.106 167.604 C 62.066 167.604,62.852 167.430,62.852 167.216 C 62.852 167.003,63.550 166.828,64.403 166.828 C 65.257 166.828,65.955 166.654,65.955 166.440 C 65.955 166.227,66.654 166.052,67.507 166.052 C 68.361 166.052,69.059 165.878,69.059 165.664 C 69.059 165.451,69.845 165.276,70.805 165.276 C 71.765 165.276,72.551 165.102,72.551 164.888 C 72.551 164.675,73.249 164.500,74.103 164.500 C 74.956 164.500,75.655 164.326,75.655 164.113 C 75.655 163.899,76.178 163.725,76.819 163.725 C 77.459 163.725,77.983 163.550,77.983 163.337 C 77.983 163.123,78.681 162.949,79.534 162.949 C 80.388 162.949,81.086 162.774,81.086 162.561 C 81.086 162.347,81.872 162.173,82.832 162.173 C 83.792 162.173,84.578 161.998,84.578 161.785 C 84.578 161.571,85.276 161.397,86.130 161.397 C 86.984 161.397,87.682 161.222,87.682 161.009 C 87.682 160.795,88.380 160.621,89.234 160.621 C 90.087 160.621,90.786 160.446,90.786 160.233 C 90.786 160.019,91.571 159.845,92.532 159.845 C 93.492 159.845,94.277 159.670,94.277 159.457 C 94.277 159.243,94.976 159.069,95.829 159.069 C 96.950 159.069,97.381 158.907,97.381 158.487 C 97.381 158.067,97.812 157.905,98.933 157.905 C 99.787 157.905,100.485 157.730,100.485 157.517 C 100.485 157.304,101.271 157.129,102.231 157.129 C 103.191 157.129,103.977 156.954,103.977 156.741 C 103.977 156.528,104.500 156.353,105.141 156.353 C 105.781 156.353,106.305 156.178,106.305 155.965 C 106.305 155.752,107.003 155.577,107.856 155.577 C 108.710 155.577,109.408 155.403,109.408 155.189 C 109.408 154.976,110.194 154.801,111.154 154.801 C 112.114 154.801,112.900 154.627,112.900 154.413 C 112.900 154.200,113.598 154.025,114.452 154.025 C 115.306 154.025,116.004 153.851,116.004 153.637 C 116.004 153.424,116.702 153.249,117.556 153.249 C 118.409 153.249,119.108 153.075,119.108 152.861 C 119.108 152.648,119.719 152.473,120.466 152.473 L 121.823 152.473 121.823 147.453 C 121.823 144.524,121.985 142.332,122.211 142.192 C 122.425 142.060,122.599 141.187,122.599 140.252 C 122.599 139.317,122.774 138.444,122.987 138.312 C 123.201 138.180,123.375 137.569,123.375 136.954 C 123.375 136.339,123.550 135.728,123.763 135.597 C 123.977 135.465,124.151 134.843,124.151 134.216 C 124.151 133.588,124.326 133.075,124.539 133.075 C 124.753 133.075,124.927 132.802,124.927 132.468 C 124.927 131.230,129.974 121.907,131.110 121.048 C 131.251 120.941,131.792 120.242,132.312 119.496 C 132.832 118.749,133.522 117.808,133.845 117.406 C 135.114 115.826,141.459 109.796,141.854 109.796 C 141.968 109.796,142.789 109.204,143.679 108.480 C 145.397 107.081,148.340 105.253,149.467 104.884 C 149.840 104.762,150.145 104.508,150.145 104.319 C 150.145 104.131,150.495 103.977,150.921 103.977 C 151.348 103.977,151.697 103.802,151.697 103.589 C 151.697 103.375,152.047 103.201,152.473 103.201 C 152.900 103.201,153.249 103.026,153.249 102.813 C 153.249 102.599,153.588 102.425,154.002 102.425 C 154.416 102.425,154.863 102.250,154.995 102.037 C 155.127 101.823,155.576 101.649,155.993 101.649 C 156.410 101.649,157.055 101.495,157.425 101.306 C 157.796 101.118,158.535 100.790,159.069 100.579 C 159.602 100.367,160.563 99.973,161.203 99.703 C 161.843 99.433,162.978 99.070,163.725 98.897 C 164.471 98.723,165.868 98.382,166.828 98.140 C 167.789 97.898,169.360 97.619,170.320 97.520 C 171.280 97.421,172.415 97.182,172.842 96.987 C 173.269 96.793,174.840 96.548,176.334 96.444 C 177.827 96.340,179.873 96.142,180.878 96.004 L 182.707 95.753 182.818 81.883 C 182.907 70.823,183.037 67.884,183.462 67.372 C 184.317 66.343,210.639 66.402,211.575 67.436 C 212.141 68.061,212.224 69.924,212.314 84.022 L 212.415 99.903 213.288 100.027 C 213.768 100.095,214.161 100.313,214.161 100.512 C 214.161 100.710,214.674 100.873,215.302 100.873 C 215.930 100.873,216.551 101.048,216.683 101.261 C 216.815 101.474,217.261 101.649,217.676 101.649 C 218.090 101.649,218.429 101.823,218.429 102.037 C 218.429 102.250,218.754 102.425,219.151 102.425 C 219.832 102.425,223.402 104.154,227.393 106.418 L 229.181 107.431 229.721 106.383 C 230.018 105.806,230.351 105.247,230.460 105.141 C 230.570 105.034,231.089 104.074,231.614 103.007 C 232.138 101.940,233.051 100.587,233.642 100.000 L 234.717 98.933 242.288 98.933 L 249.860 98.933 250.730 99.929 C 251.546 100.862,251.924 101.993,252.442 105.047 C 252.560 105.743,252.811 106.408,253.001 106.525 C 253.191 106.642,253.346 107.329,253.346 108.050 C 253.346 108.772,253.502 109.459,253.691 109.576 C 253.881 109.693,254.143 110.402,254.273 111.151 C 254.404 111.899,254.617 113.125,254.747 113.874 C 254.877 114.622,255.139 115.331,255.329 115.448 C 255.519 115.566,255.674 116.088,255.674 116.609 C 255.674 117.360,255.874 117.556,256.644 117.556 C 257.177 117.556,257.614 117.381,257.614 117.168 C 257.614 116.954,258.312 116.780,259.166 116.780 C 260.019 116.780,260.718 116.605,260.718 116.392 C 260.718 116.178,261.416 116.004,262.270 116.004 C 263.123 116.004,263.822 115.829,263.822 115.616 C 263.822 115.403,264.607 115.228,265.567 115.228 C 266.528 115.228,267.313 115.053,267.313 114.840 C 267.313 114.627,268.012 114.452,268.865 114.452 C 269.719 114.452,270.417 114.277,270.417 114.064 C 270.417 113.851,271.115 113.676,271.969 113.676 C 272.823 113.676,273.521 113.501,273.521 113.288 C 273.521 113.075,274.219 112.900,275.073 112.900 C 275.926 112.900,276.625 112.726,276.625 112.512 C 276.625 112.299,277.236 112.124,277.983 112.124 C 278.729 112.124,279.340 111.950,279.340 111.736 C 279.340 111.523,280.039 111.348,280.892 111.348 C 281.746 111.348,282.444 111.174,282.444 110.960 C 282.444 110.747,283.143 110.572,283.996 110.572 C 285.117 110.572,285.548 110.411,285.548 109.990 C 285.548 109.559,286.001 109.408,287.294 109.408 C 288.254 109.408,289.040 109.234,289.040 109.020 C 289.040 108.807,289.738 108.632,290.592 108.632 C 293.830 108.632,299.216 114.366,242.282 57.199 L 196.105 10.834 148.495 58.472 M180.601 129.971 C 180.469 130.184,179.674 130.359,178.833 130.359 C 177.992 130.359,177.304 130.515,177.304 130.705 C 177.304 130.895,176.823 131.167,176.237 131.310 C 174.837 131.649,171.815 133.093,171.165 133.734 C 170.883 134.011,170.492 134.239,170.296 134.239 C 169.754 134.239,167.604 136.609,167.604 137.206 C 167.604 137.494,167.430 137.730,167.216 137.730 C 167.003 137.730,166.828 138.080,166.828 138.506 C 166.828 138.933,166.654 139.282,166.440 139.282 C 166.227 139.282,166.052 139.544,166.052 139.864 C 166.052 140.285,166.483 140.446,167.604 140.446 C 168.458 140.446,169.156 140.272,169.156 140.058 C 169.156 139.845,169.942 139.670,170.902 139.670 C 172.195 139.670,172.648 139.519,172.648 139.088 C 172.648 138.668,173.079 138.506,174.200 138.506 C 175.053 138.506,175.752 138.332,175.752 138.118 C 175.752 137.905,176.450 137.730,177.304 137.730 C 178.157 137.730,178.855 137.556,178.855 137.342 C 178.855 137.129,179.641 136.954,180.601 136.954 L 182.347 136.954 182.347 133.269 C 182.347 129.639,181.636 128.296,180.601 129.971 "
              stroke="none" fill="#f4b46c" fill-rule="evenodd"></path>
        <path id="path4"
              d="M107.955 98.254 C 16.633 189.611,16.295 189.952,16.295 190.709 C 16.295 191.192,43.401 218.041,43.888 218.041 C 44.040 218.041,44.222 218.172,44.294 218.332 C 45.056 220.047,50.436 223.530,50.436 222.308 C 50.436 222.095,51.048 221.920,51.794 221.920 C 52.541 221.920,53.152 221.746,53.152 221.532 C 53.152 221.319,53.851 221.145,54.704 221.145 C 55.558 221.145,56.256 220.970,56.256 220.757 C 56.256 220.543,56.954 220.369,57.808 220.369 C 58.661 220.369,59.360 220.194,59.360 219.981 C 59.360 219.767,60.145 219.593,61.106 219.593 C 62.066 219.593,62.852 219.418,62.852 219.205 C 62.852 218.991,63.550 218.817,64.403 218.817 C 65.257 218.817,65.955 218.642,65.955 218.429 C 65.955 218.215,66.654 218.041,67.507 218.041 C 68.361 218.041,69.059 217.866,69.059 217.653 C 69.059 217.439,69.845 217.265,70.805 217.265 C 72.098 217.265,72.551 217.114,72.551 216.683 C 72.551 216.263,72.982 216.101,74.103 216.101 C 74.956 216.101,75.655 215.926,75.655 215.713 C 75.655 215.500,76.353 215.325,77.207 215.325 C 78.060 215.325,78.758 215.150,78.758 214.937 C 78.758 214.724,79.282 214.549,79.922 214.549 C 80.563 214.549,81.086 214.374,81.086 214.161 C 81.086 213.948,81.872 213.773,82.832 213.773 C 83.792 213.773,84.578 213.598,84.578 213.385 C 84.578 213.172,85.276 212.997,86.130 212.997 C 86.984 212.997,87.682 212.823,87.682 212.609 C 87.682 212.396,88.380 212.221,89.234 212.221 C 90.087 212.221,90.786 212.047,90.786 211.833 C 90.786 211.620,91.571 211.445,92.532 211.445 C 93.492 211.445,94.277 211.271,94.277 211.057 C 94.277 210.844,94.976 210.669,95.829 210.669 C 96.683 210.669,97.381 210.495,97.381 210.281 C 97.381 210.068,98.080 209.893,98.933 209.893 C 99.787 209.893,100.485 209.719,100.485 209.505 C 100.485 209.292,101.271 209.117,102.231 209.117 C 103.191 209.117,103.977 208.943,103.977 208.729 C 103.977 208.516,104.675 208.341,105.529 208.341 C 106.382 208.341,107.081 208.167,107.081 207.953 C 107.081 207.740,107.779 207.565,108.632 207.565 C 109.753 207.565,110.184 207.404,110.184 206.984 C 110.184 206.577,110.594 206.402,111.542 206.402 C 112.289 206.402,112.900 206.227,112.900 206.014 C 112.900 205.800,113.598 205.626,114.452 205.626 C 115.306 205.626,116.004 205.451,116.004 205.238 C 116.004 205.024,116.702 204.850,117.556 204.850 C 118.409 204.850,119.108 204.675,119.108 204.462 C 119.108 204.248,119.893 204.074,120.854 204.074 C 121.814 204.074,122.599 203.899,122.599 203.686 C 122.599 203.472,123.298 203.298,124.151 203.298 C 125.005 203.298,125.703 203.123,125.703 202.910 C 125.703 202.696,126.402 202.522,127.255 202.522 C 128.109 202.522,128.807 202.347,128.807 202.134 C 128.807 201.920,129.593 201.746,130.553 201.746 C 131.513 201.746,132.299 201.571,132.299 201.358 C 132.299 201.145,132.997 200.970,133.851 200.970 C 134.704 200.970,135.403 200.795,135.403 200.582 C 135.403 200.369,136.101 200.194,136.954 200.194 C 137.808 200.194,138.506 200.019,138.506 199.806 C 138.506 199.593,139.117 199.418,139.864 199.418 C 140.611 199.418,141.222 199.243,141.222 199.030 C 141.222 198.817,141.920 198.642,142.774 198.642 C 143.628 198.642,144.326 198.468,144.326 198.254 C 144.326 198.041,145.024 197.866,145.878 197.866 C 146.999 197.866,147.430 197.704,147.430 197.284 C 147.430 196.853,147.882 196.702,149.176 196.702 C 150.136 196.702,150.921 196.528,150.921 196.314 C 150.921 196.101,151.445 195.926,152.085 195.926 C 152.726 195.926,153.249 195.752,153.249 195.538 C 153.249 195.325,152.900 195.150,152.473 195.150 C 152.047 195.150,151.697 195.010,151.697 194.839 C 151.697 194.667,150.827 194.100,149.764 193.578 C 148.700 193.056,147.827 192.498,147.824 192.338 C 147.820 192.177,147.627 192.047,147.393 192.047 C 147.023 192.047,144.608 190.329,141.609 187.935 C 139.060 185.900,135.829 182.631,133.785 180.019 C 132.533 178.419,131.337 176.899,131.128 176.641 C 130.918 176.383,130.747 175.990,130.747 175.768 C 130.747 175.546,130.616 175.362,130.456 175.361 C 130.296 175.359,129.970 174.966,129.733 174.488 C 129.495 174.009,128.614 172.308,127.775 170.708 C 123.651 162.844,122.464 158.004,122.430 148.922 C 122.417 145.155,122.274 142.153,122.114 142.252 C 121.954 142.351,121.823 144.691,121.823 147.453 L 121.823 152.473 120.466 152.473 C 119.719 152.473,119.108 152.648,119.108 152.861 C 119.108 153.075,118.409 153.249,117.556 153.249 C 116.702 153.249,116.004 153.424,116.004 153.637 C 116.004 153.851,115.306 154.025,114.452 154.025 C 113.598 154.025,112.900 154.200,112.900 154.413 C 112.900 154.627,112.114 154.801,111.154 154.801 C 110.194 154.801,109.408 154.976,109.408 155.189 C 109.408 155.403,108.710 155.577,107.856 155.577 C 107.003 155.577,106.305 155.752,106.305 155.965 C 106.305 156.178,105.781 156.353,105.141 156.353 C 104.500 156.353,103.977 156.528,103.977 156.741 C 103.977 156.954,103.191 157.129,102.231 157.129 C 101.271 157.129,100.485 157.304,100.485 157.517 C 100.485 157.730,99.787 157.905,98.933 157.905 C 97.812 157.905,97.381 158.067,97.381 158.487 C 97.381 158.907,96.950 159.069,95.829 159.069 C 94.976 159.069,94.277 159.243,94.277 159.457 C 94.277 159.670,93.492 159.845,92.532 159.845 C 91.571 159.845,90.786 160.019,90.786 160.233 C 90.786 160.446,90.087 160.621,89.234 160.621 C 88.380 160.621,87.682 160.795,87.682 161.009 C 87.682 161.222,86.984 161.397,86.130 161.397 C 85.276 161.397,84.578 161.571,84.578 161.785 C 84.578 161.998,83.792 162.173,82.832 162.173 C 81.872 162.173,81.086 162.347,81.086 162.561 C 81.086 162.774,80.388 162.949,79.534 162.949 C 78.681 162.949,77.983 163.123,77.983 163.337 C 77.983 163.550,77.459 163.725,76.819 163.725 C 76.178 163.725,75.655 163.899,75.655 164.113 C 75.655 164.326,74.956 164.500,74.103 164.500 C 73.249 164.500,72.551 164.675,72.551 164.888 C 72.551 165.102,71.765 165.276,70.805 165.276 C 69.845 165.276,69.059 165.451,69.059 165.664 C 69.059 165.878,68.361 166.052,67.507 166.052 C 66.654 166.052,65.955 166.227,65.955 166.440 C 65.955 166.654,65.257 166.828,64.403 166.828 C 63.550 166.828,62.852 167.003,62.852 167.216 C 62.852 167.430,62.066 167.604,61.106 167.604 C 59.812 167.604,59.360 167.755,59.360 168.186 C 59.360 168.607,58.929 168.768,57.808 168.768 C 56.954 168.768,56.256 168.943,56.256 169.156 C 56.256 169.370,55.558 169.544,54.704 169.544 C 53.851 169.544,53.152 169.719,53.152 169.932 C 53.152 170.145,52.367 170.320,51.406 170.320 C 50.446 170.320,49.661 170.495,49.661 170.708 C 49.661 170.921,49.137 171.096,48.497 171.096 C 47.856 171.096,47.333 171.271,47.333 171.484 C 47.333 171.697,46.634 171.872,45.781 171.872 C 44.927 171.872,44.229 172.047,44.229 172.260 C 44.229 172.473,43.443 172.648,42.483 172.648 C 41.523 172.648,40.737 172.823,40.737 173.036 C 40.737 173.249,40.039 173.424,39.185 173.424 C 38.332 173.424,37.633 173.598,37.633 173.812 C 37.633 174.025,36.935 174.200,36.081 174.200 C 35.228 174.200,34.530 174.374,34.530 174.588 C 34.530 174.801,34.093 174.976,33.560 174.976 C 33.026 174.976,32.590 174.876,32.590 174.754 C 32.590 174.470,33.630 173.424,33.912 173.424 C 34.029 173.424,34.871 172.599,35.783 171.591 C 37.740 169.425,82.253 124.751,148.495 58.472 L 196.105 10.834 242.282 57.199 C 299.216 114.366,293.830 108.632,290.592 108.632 C 289.738 108.632,289.040 108.807,289.040 109.020 C 289.040 109.234,288.254 109.408,287.294 109.408 C 286.001 109.408,285.548 109.559,285.548 109.990 C 285.548 110.411,285.117 110.572,283.996 110.572 C 283.143 110.572,282.444 110.747,282.444 110.960 C 282.444 111.174,281.746 111.348,280.892 111.348 C 280.039 111.348,279.340 111.523,279.340 111.736 C 279.340 111.950,278.729 112.124,277.983 112.124 C 277.236 112.124,276.625 112.299,276.625 112.512 C 276.625 112.726,275.926 112.900,275.073 112.900 C 274.219 112.900,273.521 113.075,273.521 113.288 C 273.521 113.501,272.823 113.676,271.969 113.676 C 271.115 113.676,270.417 113.851,270.417 114.064 C 270.417 114.277,269.719 114.452,268.865 114.452 C 268.012 114.452,267.313 114.627,267.313 114.840 C 267.313 115.053,266.528 115.228,265.567 115.228 C 264.607 115.228,263.822 115.403,263.822 115.616 C 263.822 115.829,263.123 116.004,262.270 116.004 C 261.416 116.004,260.718 116.178,260.718 116.392 C 260.718 116.605,260.019 116.780,259.166 116.780 C 258.312 116.780,257.614 116.954,257.614 117.168 C 257.614 117.381,257.177 117.556,256.644 117.556 C 255.874 117.556,255.674 117.360,255.674 116.609 C 255.674 116.088,255.519 115.566,255.329 115.448 C 255.139 115.331,254.877 114.622,254.747 113.874 C 254.617 113.125,254.404 111.899,254.273 111.151 C 254.143 110.402,253.881 109.693,253.691 109.576 C 253.502 109.459,253.346 108.772,253.346 108.050 C 253.346 107.329,253.191 106.642,253.001 106.525 C 252.811 106.408,252.560 105.743,252.442 105.047 C 251.924 101.993,251.546 100.862,250.730 99.929 L 249.860 98.933 242.288 98.933 L 234.717 98.933 233.642 100.000 C 233.051 100.587,232.138 101.940,231.614 103.007 C 231.089 104.074,230.570 105.034,230.460 105.141 C 230.351 105.247,230.018 105.806,229.721 106.383 L 229.181 107.431 227.393 106.418 C 223.589 104.260,219.846 102.425,219.251 102.425 C 218.909 102.425,220.111 103.176,221.923 104.093 C 223.736 105.011,226.123 106.309,227.229 106.977 C 229.480 108.339,229.308 108.422,231.028 105.141 C 234.169 99.146,232.996 99.721,242.095 99.721 C 251.361 99.721,250.654 99.286,252.181 105.917 C 252.798 108.592,256.276 121.866,257.874 127.643 C 258.563 130.131,259.035 132.027,259.372 133.657 C 259.504 134.297,259.761 135.170,259.942 135.597 C 260.123 136.023,260.357 136.809,260.463 137.342 C 260.706 138.578,262.117 143.796,264.659 152.861 C 264.868 153.608,265.128 154.656,265.236 155.189 C 265.344 155.723,265.579 156.508,265.760 156.935 C 267.172 160.278,266.537 162.378,263.878 163.152 C 262.673 163.502,261.385 163.949,261.014 164.145 C 260.643 164.340,259.912 164.500,259.388 164.500 C 258.864 164.500,258.328 164.675,258.196 164.888 C 258.064 165.102,257.453 165.276,256.838 165.276 C 256.223 165.276,255.612 165.451,255.480 165.664 C 255.348 165.878,254.737 166.052,254.122 166.052 C 253.507 166.052,252.896 166.227,252.764 166.440 C 252.632 166.654,251.924 166.828,251.190 166.828 C 250.455 166.828,249.855 167.003,249.855 167.216 C 249.855 167.430,249.254 167.604,248.520 167.604 C 247.785 167.604,247.077 167.779,246.945 167.992 C 246.813 168.206,246.202 168.380,245.587 168.380 C 244.972 168.380,244.373 168.536,244.255 168.725 C 244.138 168.915,243.473 169.150,242.778 169.248 C 242.082 169.346,241.251 169.541,240.931 169.681 C 240.299 169.958,238.215 168.401,238.215 167.651 C 238.215 167.406,238.055 166.903,237.860 166.532 C 237.665 166.162,237.210 165.160,236.850 164.306 C 235.635 161.427,233.067 156.561,231.563 154.289 C 230.741 153.047,230.068 151.868,230.068 151.670 C 230.068 151.472,229.931 151.309,229.764 151.309 C 229.596 151.309,229.162 150.806,228.798 150.190 C 226.479 146.265,214.126 135.015,212.135 135.015 C 211.783 135.015,211.719 166.467,212.069 167.379 C 212.198 167.716,212.624 167.992,213.016 167.992 C 213.407 167.992,213.835 168.167,213.967 168.380 C 214.099 168.594,214.710 168.768,215.325 168.768 C 215.940 168.768,216.551 168.943,216.683 169.156 C 216.815 169.370,217.351 169.544,217.875 169.544 C 218.399 169.544,219.130 169.702,219.501 169.894 C 219.871 170.087,220.960 170.453,221.920 170.708 C 222.881 170.963,223.970 171.329,224.340 171.522 C 224.711 171.714,225.355 171.872,225.772 171.872 C 226.189 171.872,226.638 172.047,226.770 172.260 C 226.902 172.473,227.426 172.648,227.934 172.648 C 228.442 172.648,228.966 172.823,229.098 173.036 C 229.230 173.249,229.754 173.424,230.262 173.424 C 230.770 173.424,231.294 173.598,231.426 173.812 C 231.558 174.025,232.179 174.200,232.807 174.200 C 233.434 174.200,233.948 174.374,233.948 174.588 C 233.948 174.801,234.297 174.976,234.724 174.976 C 235.150 174.976,235.500 174.801,235.500 174.588 C 235.500 174.374,236.285 174.200,237.245 174.200 C 238.206 174.200,238.991 174.025,238.991 173.812 C 238.991 173.598,239.690 173.424,240.543 173.424 C 241.397 173.424,242.095 173.249,242.095 173.036 C 242.095 172.823,242.793 172.648,243.647 172.648 C 244.500 172.648,245.199 172.473,245.199 172.260 C 245.199 172.047,245.984 171.872,246.945 171.872 C 247.905 171.872,248.691 171.697,248.691 171.484 C 248.691 171.271,249.389 171.096,250.242 171.096 C 251.096 171.096,251.794 170.921,251.794 170.708 C 251.794 170.495,252.318 170.320,252.958 170.320 C 253.598 170.320,254.122 170.145,254.122 169.932 C 254.122 169.719,254.908 169.544,255.868 169.544 C 256.828 169.544,257.614 169.370,257.614 169.156 C 257.614 168.943,258.312 168.768,259.166 168.768 C 260.287 168.768,260.718 168.607,260.718 168.186 C 260.718 167.766,261.149 167.604,262.270 167.604 C 263.123 167.604,263.822 167.430,263.822 167.216 C 263.822 167.003,264.607 166.828,265.567 166.828 C 266.528 166.828,267.313 166.654,267.313 166.440 C 267.313 166.227,268.012 166.052,268.865 166.052 C 269.719 166.052,270.417 165.878,270.417 165.664 C 270.417 165.451,271.115 165.276,271.969 165.276 C 272.823 165.276,273.521 165.102,273.521 164.888 C 273.521 164.675,274.219 164.500,275.073 164.500 C 275.926 164.500,276.625 164.326,276.625 164.113 C 276.625 163.899,277.410 163.725,278.371 163.725 C 279.331 163.725,280.116 163.550,280.116 163.337 C 280.116 163.123,280.815 162.949,281.668 162.949 C 282.522 162.949,283.220 162.774,283.220 162.561 C 283.220 162.347,283.744 162.173,284.384 162.173 C 285.024 162.173,285.548 161.998,285.548 161.785 C 285.548 161.571,286.334 161.397,287.294 161.397 C 288.254 161.397,289.040 161.222,289.040 161.009 C 289.040 160.795,289.738 160.621,290.592 160.621 C 291.445 160.621,292.144 160.446,292.144 160.233 C 292.144 160.019,292.842 159.845,293.695 159.845 C 294.549 159.845,295.247 159.670,295.247 159.457 C 295.247 159.243,296.033 159.069,296.993 159.069 C 298.286 159.069,298.739 158.918,298.739 158.487 C 298.739 158.067,299.170 157.905,300.291 157.905 C 301.145 157.905,301.843 157.730,301.843 157.517 C 301.843 157.304,302.541 157.129,303.395 157.129 C 304.248 157.129,304.947 156.954,304.947 156.741 C 304.947 156.528,305.732 156.353,306.693 156.353 C 307.653 156.353,308.438 156.178,308.438 155.965 C 308.438 155.752,309.137 155.577,309.990 155.577 C 310.844 155.577,311.542 155.403,311.542 155.189 C 311.542 154.976,312.066 154.801,312.706 154.801 C 313.346 154.801,313.870 154.627,313.870 154.413 C 313.870 154.200,314.656 154.025,315.616 154.025 C 316.576 154.025,317.362 153.851,317.362 153.637 C 317.362 153.424,318.060 153.249,318.914 153.249 C 319.767 153.249,320.466 153.075,320.466 152.861 C 320.466 152.648,321.164 152.473,322.017 152.473 C 322.871 152.473,323.569 152.299,323.569 152.085 C 323.569 151.872,324.355 151.697,325.315 151.697 C 326.275 151.697,327.061 151.523,327.061 151.309 C 327.061 151.096,327.759 150.921,328.613 150.921 C 329.467 150.921,330.165 150.747,330.165 150.533 C 330.165 150.320,330.783 150.145,331.539 150.145 C 333.981 150.145,334.120 149.470,332.129 147.280 C 324.132 138.486,311.167 125.342,252.593 66.638 C 221.772 35.749,196.362 10.475,196.127 10.475 C 195.892 10.475,156.214 49.976,107.955 98.254 M183.462 67.372 C 183.037 67.884,182.907 70.823,182.818 81.883 L 182.707 95.753 180.878 96.004 C 179.873 96.142,177.827 96.340,176.334 96.444 C 174.840 96.548,173.269 96.793,172.842 96.987 C 172.415 97.182,171.280 97.421,170.320 97.520 C 169.360 97.619,167.789 97.898,166.828 98.140 C 165.868 98.382,164.471 98.723,163.725 98.897 C 162.978 99.070,161.930 99.397,161.397 99.623 C 160.863 99.849,160.096 100.139,159.692 100.269 C 159.288 100.398,159.057 100.602,159.178 100.724 C 159.299 100.845,160.416 100.599,161.659 100.177 C 166.216 98.629,173.252 97.269,179.286 96.769 C 180.910 96.634,182.431 96.405,182.666 96.260 C 182.962 96.077,183.129 91.725,183.206 82.198 C 183.295 71.200,183.425 68.271,183.850 67.760 C 184.708 66.727,210.252 66.791,211.191 67.829 C 211.766 68.464,211.833 70.175,211.833 84.255 L 211.833 99.972 212.821 100.423 C 214.016 100.967,214.161 100.977,214.161 100.512 C 214.161 100.313,213.768 100.095,213.288 100.027 L 212.415 99.903 212.314 84.022 C 212.224 69.924,212.141 68.061,211.575 67.436 C 210.639 66.402,184.317 66.343,183.462 67.372 M215.325 101.261 C 216.089 101.755,216.988 101.755,216.683 101.261 C 216.551 101.048,216.061 100.876,215.593 100.879 C 214.902 100.884,214.852 100.955,215.325 101.261 M154.995 102.037 C 154.863 102.250,154.416 102.425,154.002 102.425 C 153.588 102.425,153.249 102.599,153.249 102.813 C 153.249 103.026,152.900 103.201,152.473 103.201 C 152.047 103.201,151.697 103.375,151.697 103.589 C 151.697 103.802,151.348 103.977,150.921 103.977 C 150.495 103.977,150.145 104.131,150.145 104.319 C 150.145 104.508,149.840 104.762,149.467 104.884 C 148.340 105.253,145.397 107.081,143.679 108.480 C 142.789 109.204,141.968 109.796,141.854 109.796 C 141.459 109.796,135.114 115.826,133.845 117.406 C 133.522 117.808,132.832 118.749,132.312 119.496 C 131.792 120.242,131.251 120.941,131.110 121.048 C 129.974 121.907,124.927 131.230,124.927 132.468 C 124.927 132.802,124.753 133.075,124.539 133.075 C 124.326 133.075,124.151 133.588,124.151 134.216 C 124.151 134.843,123.977 135.465,123.763 135.597 C 123.550 135.728,123.375 136.339,123.375 136.954 C 123.375 137.569,123.201 138.180,122.987 138.312 C 122.774 138.444,122.613 139.196,122.630 139.984 C 122.665 141.634,122.612 141.755,123.928 137.023 C 124.846 133.722,125.309 132.498,127.186 128.419 C 127.819 127.043,129.988 123.344,130.371 122.987 C 130.486 122.881,131.382 121.659,132.363 120.272 C 137.049 113.646,144.897 107.379,153.787 103.163 C 155.608 102.300,156.577 101.666,156.085 101.660 C 155.617 101.654,155.127 101.823,154.995 102.037 M181.862 129.452 C 182.202 129.589,182.347 130.741,182.347 133.301 L 182.347 136.954 180.601 136.954 C 179.641 136.954,178.855 137.129,178.855 137.342 C 178.855 137.556,178.157 137.730,177.304 137.730 C 176.450 137.730,175.752 137.905,175.752 138.118 C 175.752 138.332,175.053 138.506,174.200 138.506 C 173.079 138.506,172.648 138.668,172.648 139.088 C 172.648 139.519,172.195 139.670,170.902 139.670 C 169.942 139.670,169.156 139.845,169.156 140.058 C 169.156 140.272,168.458 140.446,167.604 140.446 C 166.483 140.446,166.052 140.285,166.052 139.864 C 166.052 139.544,166.227 139.282,166.440 139.282 C 166.654 139.282,166.828 138.933,166.828 138.506 C 166.828 138.080,167.003 137.730,167.216 137.730 C 167.430 137.730,167.604 137.494,167.604 137.206 C 167.604 136.609,169.754 134.239,170.296 134.239 C 170.492 134.239,170.883 134.011,171.165 133.734 C 171.815 133.093,174.837 131.649,176.237 131.310 C 177.215 131.072,177.760 130.359,176.963 130.359 C 176.598 130.359,174.583 131.163,172.066 132.312 C 167.506 134.394,164.263 140.269,165.311 144.550 C 166.630 149.937,170.199 153.607,177.498 157.082 C 178.991 157.793,180.517 158.531,180.887 158.722 C 183.217 159.923,183.123 160.538,183.123 144.132 L 183.123 129.195 182.250 129.226 C 181.770 129.242,181.596 129.344,181.862 129.452 M178.661 129.971 C 178.007 130.252,178.080 130.309,179.124 130.332 C 179.804 130.347,180.469 130.184,180.601 129.971 C 180.889 129.506,179.744 129.506,178.661 129.971 "
              stroke="none" fill="#f2a353" fill-rule="evenodd"></path>
    </g>
</svg>